<?xml version="1.0" standalone="no"?>
<!DOCTYPE svg PUBLIC "-//W3C//DTD SVG 20010904//EN"
 "http://www.w3.org/TR/2001/REC-SVG-20010904/DTD/svg10.dtd">
<svg version="1.0" xmlns="http://www.w3.org/2000/svg"
 width="200.000000pt" height="193.000000pt" viewBox="0 0 200.000000 193.000000"
 preserveAspectRatio="xMidYMid meet">

<g transform="translate(0.000000,193.000000) scale(0.100000,-0.100000)"
fill="#000000" stroke="none">
<path d="M890 1525 c-266 -31 -428 -115 -499 -257 -27 -54 -31 -71 -31 -148 0
-209 115 -467 293 -656 140 -149 255 -206 417 -206 192 0 322 85 465 302 103
156 146 262 165 402 20 144 -26 291 -120 387 -85 87 -246 152 -420 170 -58 7
-118 13 -135 15 -16 1 -77 -3 -135 -9z"/>
</g>
</svg>
